<svg width="48" height="48" viewBox="0 0 48 48" fill="none" xmlns="http://www.w3.org/2000/svg">
<g clip-path="url(#clip0_27_321)">
<rect width="48" height="48" rx="8" fill="#2C2C2C"/>
<g filter="url(#filter0_f_27_321)">
<circle cx="24" cy="24" r="20" fill="url(#paint0_radial_27_321)" fill-opacity="0.5"/>
</g>
<path d="M31 17L17 31" stroke="#29B550" stroke-width="2" stroke-linecap="round" stroke-linejoin="round"/>
<path d="M18.5 21C19.8807 21 21 19.8807 21 18.5C21 17.1193 19.8807 16 18.5 16C17.1193 16 16 17.1193 16 18.5C16 19.8807 17.1193 21 18.5 21Z" stroke="#29B550" stroke-width="2" stroke-linecap="round" stroke-linejoin="round"/>
<path d="M29.5 32C30.8807 32 32 30.8807 32 29.5C32 28.1193 30.8807 27 29.5 27C28.1193 27 27 28.1193 27 29.5C27 30.8807 28.1193 32 29.5 32Z" stroke="#29B550" stroke-width="2" stroke-linecap="round" stroke-linejoin="round"/>
</g>
<defs>
<filter id="filter0_f_27_321" x="-6" y="-6" width="60" height="60" filterUnits="userSpaceOnUse" color-interpolation-filters="sRGB">
<feFlood flood-opacity="0" result="BackgroundImageFix"/>
<feBlend mode="normal" in="SourceGraphic" in2="BackgroundImageFix" result="shape"/>
<feGaussianBlur stdDeviation="5" result="effect1_foregroundBlur_27_321"/>
</filter>
<radialGradient id="paint0_radial_27_321" cx="0" cy="0" r="1" gradientUnits="userSpaceOnUse" gradientTransform="translate(24 24) rotate(90) scale(20)">
<stop stop-color="#98EAAF" stop-opacity="0.5"/>
<stop offset="1" stop-color="#318749" stop-opacity="0.5"/>
</radialGradient>
<clipPath id="clip0_27_321">
<rect width="48" height="48" rx="24" fill="white"/>
</clipPath>
</defs>
</svg>
